<svg width="48" height="48" viewBox="0 0 48 48" fill="none" xmlns="http://www.w3.org/2000/svg">
<g id="Clock Icon">
<path id="Vector" d="M48 24C48 37.2528 37.2528 48 24 48C10.7472 48 0 37.2528 0 24C0 10.7472 10.7472 0 24 0C37.2528 0 48 10.7472 48 24Z" fill="#FFFF00"/>
<path id="Vector_2" d="M43.2265 24C43.2265 34.6202 34.6203 43.2265 24 43.2265C13.3798 43.2265 4.7735 34.6202 4.7735 24C4.7735 13.3797 13.381 4.77344 24 4.77344C34.6191 4.77344 43.2265 13.3809 43.2265 24Z" fill="white"/>
<path id="Vector_3" d="M22.7984 43.1665C23.1973 43.1905 23.5939 43.2265 24 43.2265C24.4062 43.2265 24.8027 43.1905 25.2017 43.1665V38.4219H22.7984V43.1665ZM38.4199 25.209H43.1665C43.1905 24.8102 43.2265 24.4138 43.2265 24.0078C43.2265 23.6018 43.1905 23.2054 43.1665 22.8066H38.4199V25.209ZM4.83358 25.209H9.58013V22.8066H4.83358C4.80955 23.2054 4.7735 23.6018 4.7735 24.0078C4.7735 24.4138 4.80955 24.8102 4.83358 25.209Z" fill="#7D9AA8"/>
<path id="Vector_4" d="M33.1492 31.5812L31.1046 33.6796L23.0718 25.4354L25.1164 23.337L33.1492 31.5812Z" fill="black"/>
<path id="Vector_5" d="M27.5801 24C27.5801 25.9763 25.9762 27.5801 24 27.5801C22.0238 27.5801 20.4199 25.9763 20.4199 24C20.4199 22.0238 22.0238 20.4199 24 20.4199C25.9762 20.4199 27.5801 22.0238 27.5801 24Z" fill="black"/>
<path id="Vector_6" d="M22.8066 8.48621H25.1934V20.6851H22.8066V8.48621Z" fill="black"/>
<path id="Vector_7" d="M25.1934 24C25.1934 24.6576 24.6576 25.1934 24 25.1934C23.3425 25.1934 22.8066 24.6576 22.8066 24C22.8066 23.3425 23.3425 22.8066 24 22.8066C24.6576 22.8066 25.1934 23.3425 25.1934 24Z" fill="#FFFF00"/>
</g>
</svg>
