<svg width="71" height="70" viewBox="0 0 71 70" fill="none" xmlns="http://www.w3.org/2000/svg">
<path id="Vector" d="M70.2333 34.9014C70.2333 30.3313 69.3331 25.8059 67.5842 21.5837C65.8353 17.3615 63.2719 13.5251 60.0403 10.2935C56.8088 7.06195 52.9724 4.49854 48.7502 2.74964C44.5279 1.00073 40.0026 0.100586 35.4325 0.100586C30.8624 0.100586 26.337 1.00073 22.1148 2.74964C17.8926 4.49854 14.0562 7.06195 10.8246 10.2935C7.59305 13.5251 5.02964 17.3615 3.28074 21.5837C1.53183 25.8059 0.631683 30.3313 0.631683 34.9014C0.631683 44.1311 4.29819 52.9828 10.8246 59.5093C17.351 66.0357 26.2027 69.7022 35.4325 69.7022C44.6622 69.7022 53.5139 66.0357 60.0403 59.5093C66.5668 52.9828 70.2333 44.1311 70.2333 34.9014ZM6.43182 34.9014C6.43182 27.2099 9.48723 19.8335 14.9259 14.3948C20.3646 8.95614 27.741 5.90072 35.4325 5.90072C43.1239 5.90072 50.5004 8.95614 55.939 14.3948C61.3777 19.8335 64.4331 27.2099 64.4331 34.9014C64.4331 42.5928 61.3777 49.9693 55.939 55.4079C50.5004 60.8466 43.1239 63.902 35.4325 63.902C27.741 63.902 20.3646 60.8466 14.9259 55.4079C9.48723 49.9693 6.43182 42.5928 6.43182 34.9014ZM29.6323 27.6512C29.6323 28.2225 29.5198 28.7881 29.3012 29.3159C29.0826 29.8437 28.7622 30.3233 28.3582 30.7272C27.9543 31.1311 27.4747 31.4516 26.947 31.6702C26.4192 31.8888 25.8535 32.0013 25.2822 32.0013C24.711 32.0013 24.1453 31.8888 23.6175 31.6702C23.0898 31.4516 22.6102 31.1311 22.2063 30.7272C21.8023 30.3233 21.4819 29.8437 21.2633 29.3159C21.0447 28.7881 20.9321 28.2225 20.9321 27.6512C20.9321 26.4975 21.3905 25.391 22.2063 24.5752C23.0221 23.7594 24.1285 23.3011 25.2822 23.3011C26.436 23.3011 27.5424 23.7594 28.3582 24.5752C29.174 25.391 29.6323 26.4975 29.6323 27.6512ZM49.9328 27.6512C49.9328 28.8049 49.4745 29.9114 48.6587 30.7272C47.8429 31.543 46.7364 32.0013 45.5827 32.0013C44.429 32.0013 43.3225 31.543 42.5067 30.7272C41.6909 29.9114 41.2326 28.8049 41.2326 27.6512C41.2326 26.4975 41.6909 25.391 42.5067 24.5752C43.3225 23.7594 44.429 23.3011 45.5827 23.3011C46.7364 23.3011 47.8429 23.7594 48.6587 24.5752C49.4745 25.391 49.9328 26.4975 49.9328 27.6512ZM24.5978 51.2693C29.6323 43.5 40.8962 44.9124 46.2671 51.2693C46.5068 51.5777 46.8063 51.8344 47.1476 52.0242C47.4889 52.2139 47.865 52.3328 48.2533 52.3737C48.6417 52.4145 49.0343 52.3765 49.4076 52.262C49.781 52.1474 50.1273 51.9586 50.4259 51.7069C50.7245 51.4552 50.9692 51.1458 51.1453 50.7973C51.3213 50.4487 51.4252 50.0682 51.4507 49.6785C51.4761 49.2888 51.4226 48.898 51.2934 48.5295C51.1641 48.161 50.9617 47.8224 50.6984 47.5341C43.0132 38.4279 27.8459 38.4279 20.1665 47.5341C19.9032 47.8224 19.7009 48.161 19.5716 48.5295C19.4423 48.898 19.3888 49.2888 19.4143 49.6785C19.4397 50.0682 19.5436 50.4487 19.7197 50.7973C19.8958 51.1458 20.1405 51.4552 20.4391 51.7069C20.7376 51.9586 21.084 52.1474 21.4573 52.262C21.8306 52.3765 22.2232 52.4145 22.6116 52.3737C23 52.3328 23.3761 52.2139 23.7174 52.0242C24.0587 51.8344 24.3582 51.5777 24.5978 51.2693Z" fill="#FFFF00" fill-opacity="0.93"/>
</svg>
