<svg width="41" height="24" viewBox="0 0 41 24" fill="none" xmlns="http://www.w3.org/2000/svg">
<g id="typcn:tick">
<path id="Vector" d="M28.9938 6.251C28.6017 6.12325 28.1703 6.04201 27.7244 6.01193C27.2785 5.98184 26.8269 6.0035 26.3954 6.07567C25.9638 6.14783 25.5608 6.26908 25.2093 6.43249C24.8579 6.5959 24.5649 6.79826 24.3472 7.028L18.0041 13.71L14.3739 11.585C14.0588 11.394 13.6817 11.2416 13.2649 11.1368C12.848 11.032 12.3997 10.9768 11.9461 10.9745C11.4924 10.9722 11.0425 11.0228 10.6226 11.1234C10.2027 11.2239 9.82121 11.3724 9.50041 11.5602C9.17961 11.748 8.92592 11.9713 8.75412 12.2171C8.58233 12.4629 8.49588 12.7262 8.49982 12.9918C8.50377 13.2574 8.59802 13.5198 8.77708 13.7638C8.95615 14.0078 9.21644 14.2285 9.54276 14.413L16.3761 18.413C17.0218 18.792 17.8931 19 18.7917 19L19.2649 18.98C19.7886 18.9371 20.2881 18.8237 20.7242 18.6486C21.1602 18.4735 21.5209 18.2415 21.7778 17.971L30.3195 8.971C30.5376 8.74145 30.6763 8.48901 30.7277 8.22808C30.7791 7.96715 30.7422 7.70286 30.6191 7.45028C30.496 7.1977 30.2891 6.96179 30.0102 6.75602C29.7314 6.55024 29.386 6.37864 28.9938 6.251Z" fill="#00FF19"/>
</g>
</svg>
